# xmcd
#
# Track frame offsets: 
#        150
#        17442
#        68412
#        90256
#        190278
#        221219
#        242160
#        275485
#
# Disc length: 3877 seconds
#
# Revision: 2
# Processed by: cddbd v1.5.2PL0 Copyright (c) Steve Scherf et al.
# Submitted via: ExactAudioCopy v0.99pb4
#
DISCID=660f2308
DTITLE=Crimetime Orchestra - Life Is a Beautiful monster
DYEAR=2004
DGENRE=Jazz
TTITLE0=Life Is a Beatiful monster (Part 1)
TTITLE1=Life Is a Beatiful monster (Part 2)
TTITLE2=Life Is a Beatiful monster (Part 3)
TTITLE3=Life Is a Beatiful monster (Part 4)
TTITLE4=Life Is a Beatiful monster (Part 5)
TTITLE5=Life Is a Beatiful monster (Part 6)
TTITLE6=Life Is a Beatiful monster (Part 7)
TTITLE7=Rest In Peace
EXTD=YEAR: 2004
EXTT0=
EXTT1=
EXTT2=
EXTT3=
EXTT4=
EXTT5=
EXTT6=
EXTT7=
PLAYORDER=
